<?xml version="1.0" encoding="UTF-8" standalone="no"?>
<!-- Created with Inkscape (http://www.inkscape.org/) -->

<svg
   width="1063.9662mm"
   height="262.01608mm"
   viewBox="0 0 1063.9662 262.01608"
   version="1.1"
   id="svg1"
   xml:space="preserve"
   xmlns:inkscape="http://www.inkscape.org/namespaces/inkscape"
   xmlns:sodipodi="http://sodipodi.sourceforge.net/DTD/sodipodi-0.dtd"
   xmlns:xlink="http://www.w3.org/1999/xlink"
   xmlns="http://www.w3.org/2000/svg"
   xmlns:svg="http://www.w3.org/2000/svg"><sodipodi:namedview
     id="namedview1"
     pagecolor="#ffffff"
     bordercolor="#000000"
     borderopacity="0.25"
     inkscape:showpageshadow="2"
     inkscape:pageopacity="0.0"
     inkscape:pagecheckerboard="0"
     inkscape:deskcolor="#d1d1d1"
     inkscape:document-units="mm" /><defs
     id="defs1"><linearGradient
       id="linearGradient3"
       inkscape:collect="always"><stop
         style="stop-color:#4b19db;stop-opacity:1;"
         offset="0"
         id="stop5" /><stop
         style="stop-color:#d000cc;stop-opacity:1;"
         offset="1"
         id="stop6" /></linearGradient><linearGradient
       inkscape:collect="always"
       xlink:href="#linearGradient3"
       id="linearGradient6"
       x1="65.365593"
       y1="-58.02903"
       x2="82.72197"
       y2="97.798096"
       gradientUnits="userSpaceOnUse" /></defs><g
     inkscape:label="Layer 1"
     inkscape:groupmode="layer"
     id="layer1"
     transform="translate(296.59782,-3.3602282)"><g
       style="fill:none"
       id="g1"
       transform="matrix(8.3417624,0,0,8.3417624,-299.53047,-76.489337)"
       inkscape:export-filename="g1.svg"
       inkscape:export-xdpi="96"
       inkscape:export-ydpi="96"><path
         id="path1"
         style="fill:url(#linearGradient6);fill-opacity:1"
         d="m 27.9375,9.5722656 c -0.4962,0 -0.966057,0.1019146 -1.410156,0.3027344 -0.431,0.18746 -0.810219,0.448503 -1.136719,0.783203 -0.3134,0.3214 -0.567672,0.708863 -0.763672,1.164063 -0.1828,0.441899 -0.275391,0.91095 -0.275391,1.40625 0,0.508799 0.09259,0.983981 0.275391,1.425781 0.196,0.441799 0.450272,0.829363 0.763672,1.164062 0.3265,0.3213 0.705719,0.582404 1.136719,0.783203 0.444099,0.1874 0.913956,0.28125 1.410156,0.28125 0.4965,10e-7 0.959425,-0.09385 1.390625,-0.28125 0.4441,-0.200799 0.82965,-0.461903 1.15625,-0.783203 0.3266,-0.334699 0.580972,-0.722263 0.763672,-1.164062 0.1961,-0.4418 0.294922,-0.916982 0.294922,-1.425781 0,-0.4953 -0.09882,-0.964351 -0.294922,-1.40625 -0.1827,-0.4552 -0.437072,-0.842663 -0.763672,-1.164063 -0.3266,-0.3347 -0.71215,-0.595743 -1.15625,-0.783203 C 28.896925,9.6741802 28.434,9.5722656 27.9375,9.5722656 Z m 52.074219,0 c -0.4962,0 -0.966157,0.1019146 -1.410157,0.3027344 -0.431199,0.18746 -0.810319,0.448503 -1.136718,0.783203 -0.3135,0.3214 -0.567572,0.708863 -0.763672,1.164063 -0.1827,0.441899 -0.275391,0.91095 -0.275391,1.40625 0,0.508799 0.09269,0.983981 0.275391,1.425781 0.1961,0.441799 0.450172,0.829363 0.763672,1.164062 0.326399,0.3213 0.705519,0.582404 1.136718,0.783203 0.444,0.1874 0.913957,0.28125 1.410157,0.28125 0.496399,10e-7 0.959725,-0.09385 1.390625,-0.28125 0.444099,-0.200799 0.82965,-0.461903 1.15625,-0.783203 0.326399,-0.334699 0.580672,-0.722263 0.763672,-1.164062 0.195799,-0.4418 0.294922,-0.916982 0.294922,-1.425781 0,-0.4953 -0.09912,-0.964351 -0.294922,-1.40625 -0.183,-0.4552 -0.437273,-0.842663 -0.763672,-1.164063 -0.3266,-0.3347 -0.712151,-0.595743 -1.15625,-0.783203 -0.4309,-0.2008198 -0.894226,-0.3027344 -1.390625,-0.3027344 z M 55.679688,10.517578 v 30.0625 h 5.386718 v -2.75 l 3.722656,-5.060547 4.251954,7.810547 h 6.15039 l -6.955078,-12.511719 6.955078,-8.955078 h -6.15039 l -7.97461,10.361328 V 10.517578 Z m 32.246093,0 v 8.595703 h -2.605469 v 5.460938 h 2.605469 v 6.386719 c 0,1.325398 0.243263,2.571629 0.726563,3.736328 0.496199,1.164798 1.168579,2.188566 2.017578,3.072265 0.862199,0.870299 1.861748,1.55966 2.998047,2.06836 1.136299,0.495399 2.349479,0.742187 3.642578,0.742187 h 4.054683 v -5.46289 h -4.054683 c -0.5618,0 -1.089438,-0.105913 -1.585938,-0.320313 -0.496199,-0.2276 -0.927069,-0.529197 -1.292968,-0.904297 -0.3657,-0.3748 -0.654382,-0.809488 -0.863282,-1.304687 -0.209099,-0.5089 -0.3125,-1.051154 -0.3125,-1.626953 v -6.386719 h 8.109371 V 19.113281 H 93.255859 V 10.517578 Z M 0.3515625,11.783203 v 5.763672 H 8.796875 v 23.033203 h 5.603516 V 17.546875 h 8.423828 v -5.763672 z m 43.9257815,6.464844 c -1.475799,0 -2.86763,0.308029 -4.173828,0.923828 -1.292999,0.615899 -2.428604,1.460251 -3.408204,2.53125 -0.966699,1.057699 -1.731169,2.301776 -2.292968,3.734375 -0.5614,1.432599 -0.841797,2.972242 -0.841797,4.619141 0,1.512998 0.280397,2.932313 0.841797,4.257812 0.561799,1.325399 1.326269,2.48391 2.292968,3.474609 0.9796,0.9909 2.115205,1.77381 3.408204,2.34961 1.306198,0.562099 2.698029,0.84375 4.173828,0.84375 0.875199,0 1.724076,-0.108166 2.546875,-0.322266 0.835899,-0.2007 1.624741,-0.500644 2.36914,-0.902344 0.7575,-0.401699 1.457557,-0.890997 2.097657,-1.466796 0.652999,-0.5755 1.226456,-1.224167 1.722656,-1.947266 l -3.917969,-4.037109 c -0.2089,0.481999 -0.482866,0.924472 -0.822265,1.326171 -0.3266,0.3883 -0.70582,0.722907 -1.136719,1.003907 -0.4181,0.267899 -0.868163,0.475847 -1.351563,0.623047 -0.483299,0.147199 -0.985413,0.220703 -1.507812,0.220703 -0.7314,0 -1.425126,-0.140576 -2.078125,-0.421875 -0.6401,-0.281 -1.200494,-0.670516 -1.683594,-1.166016 -0.4702,-0.495099 -0.843088,-1.070763 -1.117187,-1.726562 -0.2742,-0.6562 -0.41211,-1.359776 -0.41211,-2.109375 0,-0.923799 0.13791,-1.766198 0.41211,-2.529297 0.274099,-0.763199 0.646987,-1.419851 1.117187,-1.96875 0.4831,-0.5623 1.043494,-0.996788 1.683594,-1.304688 0.652999,-0.307899 1.346725,-0.46289 2.078125,-0.46289 0.522399,0 1.031144,0.08159 1.527344,0.242187 0.496499,0.1607 0.953194,0.395225 1.371093,0.703125 0.4311,0.308 0.816751,0.689332 1.15625,1.144531 0.3397,0.4418 0.606935,0.94356 0.802735,1.50586 l 3.919922,-4.03711 c -0.4702,-0.816699 -1.032648,-1.538669 -1.685547,-2.167968 -0.6401,-0.6293 -1.344536,-1.159491 -2.115235,-1.587891 -0.757499,-0.4418 -1.561157,-0.776306 -2.410156,-1.003906 -0.835899,-0.2277 -1.691207,-0.341797 -2.566406,-0.341797 z m -19.042969,0.824219 v 21.507812 h 5.386719 V 19.072266 Z m 52.074219,0 v 21.507812 h 5.386718 V 19.072266 Z m 25.958986,0.04102 v 5.460938 h 8.83594 l -8.83594,16.005859 h 17.49414 v -5.46289 h -8.83594 l 8.83594,-16.003907 z m 19.67187,1.976563 c -0.0134,8.9e-4 -0.0258,0.0042 -0.0391,0.0078 -0.052,0.0145 -0.097,0.04916 -0.125,0.09766 l -5.23047,9.28711 v 0.002 c -0.013,0.0239 -0.0233,0.04877 -0.0273,0.07617 -0.003,0.0277 -10e-4,0.05718 0.006,0.08398 0.007,0.0269 0.0192,0.05007 0.0352,0.07227 0.017,0.0219 0.0366,0.04069 0.0606,0.05469 l 1.76367,1.042969 c 0.109,-0.127 0.25692,-0.212534 0.41992,-0.240234 0.163,-0.0274 0.32966,0.0053 0.47266,0.08984 0.143,0.0847 0.2545,0.216801 0.3125,0.375 0.059,0.1582 0.0608,0.331788 0.008,0.492188 l 1.74024,1.029297 c 0.007,0.0054 0.0145,0.01093 0.0215,0.01563 0.024,0.014 0.0492,0.02149 0.0762,0.02539 0.026,0.0035 0.0541,0.0032 0.0801,-0.0039 0.026,-0.0071 0.0503,-0.02011 0.0723,-0.03711 0.021,-0.0167 0.0387,-0.0383 0.0527,-0.0625 l 5.23047,-9.287109 c 0.014,-0.024 0.0233,-0.05063 0.0273,-0.07813 0.003,-0.0275 0.002,-0.05523 -0.006,-0.08203 -0.006,-0.0268 -0.0191,-0.05222 -0.0352,-0.07422 -0.016,-0.022 -0.0375,-0.04079 -0.0605,-0.05469 -0.005,-0.0024 -0.01,-0.0037 -0.0137,-0.0059 l -1.75,-1.035157 c -0.109,0.1272 -0.25692,0.210782 -0.41992,0.238282 -0.163,0.0276 -0.32966,-0.0033 -0.47266,-0.08789 -0.143,-0.0848 -0.2535,-0.218353 -0.3125,-0.376953 -0.058,-0.1586 -0.0618,-0.331688 -0.008,-0.492188 l -1.76172,-1.042968 c -0.036,-0.02092 -0.0768,-0.03197 -0.11719,-0.0293 z m 0.42383,1.615234 c 0.0399,-0.0027 0.0792,0.0063 0.11524,0.02734 l 2.74023,1.623047 c 0.024,0.0139 0.0435,0.03269 0.0606,0.05469 0.016,0.0219 0.0281,0.04547 0.0351,0.07227 0.007,0.0267 0.009,0.05453 0.006,0.08203 -0.004,0.0274 -0.0124,0.05412 -0.0254,0.07813 l -4.07812,7.240234 c -0.014,0.0242 -0.0317,0.0458 -0.0527,0.0625 -0.022,0.017 -0.0463,0.02991 -0.0723,0.03711 -0.026,0.0071 -0.0541,0.0094 -0.0801,0.0059 -0.027,-0.0036 -0.0522,-0.01334 -0.0762,-0.02734 L 119.19539,30.3399 c -0.023,-0.014 -0.0445,-0.03269 -0.0605,-0.05469 -0.017,-0.0219 -0.0282,-0.04762 -0.0352,-0.07422 -0.007,-0.0269 -0.01,-0.05463 -0.006,-0.08203 0.004,-0.0274 0.0114,-0.05422 0.0254,-0.07813 l 4.07813,-7.240234 c 0.027,-0.0485 0.072,-0.08316 0.125,-0.09766 0.013,-0.0036 0.0277,-0.0069 0.041,-0.0078 z m -0.32226,3.38086 c -0.006,7.49e-4 -0.0121,0.0013 -0.0176,0.0039 -0.011,0.0052 -0.0213,0.01439 -0.0273,0.02539 l -0.41992,0.748047 -0.8457,-0.162109 c -0.012,-0.0023 -0.0261,5.59e-4 -0.0371,0.0059 -0.011,0.0053 -0.0194,0.01244 -0.0254,0.02344 -0.006,0.0109 -0.0108,0.02451 -0.01,0.03711 0.001,0.0126 0.008,0.0236 0.0156,0.0332 l 0.55859,0.671875 -0.41992,0.746094 c -0.006,0.0113 -0.009,0.02451 -0.008,0.03711 10e-4,0.0129 0.006,0.02556 0.0137,0.03516 0.008,0.0096 0.0192,0.01653 0.0312,0.01953 0.013,0.0031 0.0251,6.94e-4 0.0371,-0.0039 l 0.77734,-0.316407 0.57422,0.6875 c 0.008,0.0093 0.0192,0.01643 0.0312,0.01953 0.012,0.003 0.0251,0.0023 0.0371,-0.002 0.011,-0.0044 0.0203,-0.01304 0.0273,-0.02344 0.007,-0.0104 0.01,-0.02256 0.01,-0.03516 l -0.0156,-0.921875 0.78711,-0.447266 c 0.011,-0.0062 0.0204,-0.01594 0.0254,-0.02734 0.005,-0.0113 0.008,-0.02461 0.006,-0.03711 -0.002,-0.0124 -0.008,-0.0242 -0.0156,-0.0332 -0.009,-0.0089 -0.0212,-0.01342 -0.0332,-0.01563 l -0.86719,-0.166016 -0.12305,-0.851562 c -0.002,-0.0125 -0.007,-0.0241 -0.0156,-0.0332 -0.009,-0.0092 -0.0192,-0.01518 -0.0312,-0.01758 -0.006,-0.0011 -0.0134,-7.5e-4 -0.0195,0 z" /></g></g></svg>
